<?xml version="1.0" standalone="no"?>
<!DOCTYPE svg PUBLIC "-//W3C//DTD SVG 20010904//EN"
 "http://www.w3.org/TR/2001/REC-SVG-20010904/DTD/svg10.dtd">
<svg version="1.0" xmlns="http://www.w3.org/2000/svg"
 width="512.000000pt" height="512.000000pt" viewBox="0 0 512.000000 512.000000"
 preserveAspectRatio="xMidYMid meet">
<metadata>
Created by potrace 1.11, written by Peter Selinger 2001-2013
</metadata>
<g transform="translate(0.000000,512.000000) scale(0.100000,-0.100000)"
fill="#000000" stroke="none">
<path d="M584 4421 c-82 -38 -129 -140 -105 -228 25 -95 98 -152 194 -153 190
-1 267 242 114 364 -49 39 -140 47 -203 17z"/>
<path d="M1930 4418 c-26 -13 -57 -41 -75 -66 -26 -38 -30 -52 -30 -112 0 -60
4 -74 30 -112 38 -54 103 -88 165 -87 45 2 45 2 -12 9 -124 16 -196 115 -174
235 9 47 76 120 123 136 90 29 185 -12 231 -101 12 -24 22 -37 22 -29 0 25
-50 93 -87 119 -51 35 -134 39 -193 8z"/>
<path d="M170 2125 c0 -1640 0 -1656 20 -1695 13 -26 34 -47 60 -60 39 -20 54
-20 2315 -20 2261 0 2276 0 2315 20 26 13 47 34 60 60 20 39 20 55 20 1695 l0
1655 -2395 0 -2395 0 0 -1655z m1288 1273 c3 -22 10 -30 41 -38 76 -20 134
-78 143 -140 3 -24 0 -25 -54 -28 -49 -3 -57 0 -63 17 -8 27 -33 51 -51 51
-11 0 -14 -16 -14 -68 l0 -68 55 -18 c129 -40 185 -145 136 -252 -22 -48 -66
-82 -136 -106 -41 -14 -51 -21 -55 -45 -4 -19 -12 -29 -27 -31 -18 -3 -22 2
-25 29 -3 29 -8 34 -58 50 -37 12 -67 31 -92 57 -35 39 -65 112 -53 132 3 6
28 10 56 10 48 0 49 -1 65 -40 16 -40 39 -60 68 -60 13 0 16 13 16 73 0 39 -4
77 -8 82 -4 6 -25 16 -47 23 -67 20 -105 49 -127 98 -43 98 12 197 132 236 37
12 46 19 48 42 5 38 46 33 50 -6z"/>
<path d="M1351 3234 c-32 -40 -8 -94 41 -94 17 0 19 7 16 57 -4 68 -23 80 -57
37z"/>
<path d="M1467 2983 c-4 -3 -7 -37 -7 -75 0 -55 3 -68 16 -68 71 0 97 103 33
135 -32 17 -33 17 -42 8z"/>
</g>
</svg>
